<svg width="166" height="35" viewBox="0 0 166 35" fill="none" xmlns="http://www.w3.org/2000/svg">
<path d="M9.49861 27.36C6.45061 27.36 4.12261 26.34 2.51461 24.3C0.930609 22.26 0.138609 19.524 0.138609 16.092V13.392C0.138609 11.136 0.474609 9.168 1.14661 7.488C1.84261 5.808 2.86261 4.5 4.20661 3.564C5.55061 2.628 7.19461 2.16 9.13861 2.16C10.9386 2.16 12.4266 2.52 13.6026 3.24C14.7786 3.936 15.6306 4.86 16.1586 6.012C16.6866 7.14 16.8546 8.376 16.6626 9.72L13.5666 10.476C13.8306 8.172 13.5666 6.408 12.7746 5.184C11.9826 3.936 10.7706 3.312 9.13861 3.312C7.31461 3.312 5.92261 3.96 4.96261 5.256C4.02661 6.552 3.55861 8.664 3.55861 11.592V17.892C3.55861 20.844 4.06261 22.968 5.07061 24.264C6.07861 25.56 7.57861 26.208 9.57061 26.208C10.3626 26.208 11.1186 26.076 11.8386 25.812C12.5586 25.524 13.1706 25.044 13.6746 24.372C14.1786 23.7 14.4906 22.764 14.6106 21.564L16.8426 22.14C16.3146 24.06 15.3786 25.416 14.0346 26.208C12.7146 26.976 11.2026 27.36 9.49861 27.36ZM19.4357 1.332V0.36H25.1597V24.084C25.1597 24.924 25.1957 25.416 25.2677 25.56C25.3397 25.704 25.5677 25.8 25.9517 25.848L27.9317 26.064V27H19.4357V26.064L21.4157 25.848C21.7997 25.8 22.0277 25.704 22.0997 25.56C22.1717 25.416 22.2077 24.924 22.2077 24.084V3.276C22.2077 2.436 22.1717 1.944 22.0997 1.8C22.0277 1.656 21.7997 1.56 21.4157 1.512L19.4357 1.332ZM46.7946 17.712V18.432C46.7946 21.144 46.1106 23.316 44.7426 24.948C43.3986 26.556 41.4786 27.36 38.9826 27.36C36.5106 27.36 34.5906 26.556 33.2226 24.948C31.8786 23.316 31.2066 21.144 31.2066 18.432V17.712C31.2066 15.024 31.8786 12.876 33.2226 11.268C34.5666 9.636 36.4866 8.82 38.9826 8.82C41.4786 8.82 43.3986 9.636 44.7426 11.268C46.1106 12.876 46.7946 15.024 46.7946 17.712ZM43.5546 16.992C43.5546 14.496 43.1586 12.708 42.3666 11.628C41.5986 10.524 40.4706 9.972 38.9826 9.972C37.5186 9.972 36.3906 10.524 35.5986 11.628C34.8306 12.708 34.4466 14.496 34.4466 16.992V19.152C34.4466 21.672 34.8306 23.484 35.5986 24.588C36.3906 25.668 37.5186 26.208 38.9826 26.208C40.4706 26.208 41.5986 25.668 42.3666 24.588C43.1586 23.484 43.5546 21.672 43.5546 19.152V16.992ZM62.1537 23.328C61.7937 24.72 61.2297 25.74 60.4617 26.388C59.6937 27.036 58.7097 27.36 57.5097 27.36C56.3577 27.36 55.4217 27.108 54.7017 26.604C53.9817 26.076 53.4537 25.392 53.1177 24.552C52.7817 23.712 52.6137 22.836 52.6137 21.924V12.096C52.6137 11.256 52.5777 10.764 52.5057 10.62C52.4577 10.476 52.2297 10.38 51.8217 10.332L49.8417 10.152V9.18H52.6137V4.464L55.5657 3.852V9.18H61.4337V10.332H55.5657V22.212C55.5657 23.724 55.7697 24.768 56.1777 25.344C56.6097 25.92 57.1737 26.208 57.8697 26.208C58.5657 26.208 59.0937 25.944 59.4537 25.416C59.8377 24.888 60.1137 24.024 60.2817 22.824L62.1537 23.328ZM84.0675 26.064V27H75.5715V26.064L77.5515 25.848C77.9355 25.8 78.1635 25.704 78.2355 25.56C78.3075 25.416 78.3435 24.924 78.3435 24.084V15.12C78.3435 13.344 78.0555 12.096 77.4795 11.376C76.9035 10.632 76.0875 10.26 75.0315 10.26C74.2155 10.26 73.3275 10.5 72.3675 10.98C71.4075 11.46 70.5075 12.408 69.6675 13.824V24.084C69.6675 24.924 69.7035 25.416 69.7755 25.56C69.8475 25.704 70.0755 25.8 70.4595 25.848L72.4395 26.064V27H63.9435V26.064L65.9235 25.848C66.3075 25.8 66.5355 25.704 66.6075 25.56C66.6795 25.416 66.7155 24.924 66.7155 24.084V3.276C66.7155 2.436 66.6795 1.944 66.6075 1.8C66.5355 1.656 66.3075 1.56 65.9235 1.512L63.9435 1.332V0.36H69.6675V11.916C70.5075 10.836 71.4675 10.056 72.5475 9.576C73.6275 9.072 74.6955 8.82 75.7515 8.82C77.5275 8.82 78.8955 9.372 79.8555 10.476C80.8155 11.556 81.2955 13.092 81.2955 15.084V24.084C81.2955 24.924 81.3315 25.416 81.4035 25.56C81.4755 25.704 81.7035 25.8 82.0875 25.848L84.0675 26.064ZM94.6282 26.208C96.2362 26.208 97.5322 25.812 98.5162 25.02C99.5242 24.228 100.028 23.064 100.028 21.528C100.028 20.304 99.6562 19.284 98.9122 18.468C98.1682 17.628 96.8722 16.956 95.0242 16.452L92.5402 15.732C90.7162 15.228 89.3242 14.376 88.3642 13.176C87.4042 11.976 86.9242 10.512 86.9242 8.784C86.9242 7.632 87.1882 6.552 87.7162 5.544C88.2682 4.536 89.0962 3.72 90.2002 3.096C91.3282 2.472 92.7562 2.16 94.4842 2.16C96.4042 2.16 97.9522 2.52 99.1282 3.24C100.304 3.936 101.12 4.848 101.576 5.976C102.032 7.104 102.14 8.316 101.9 9.612L98.8762 10.26C99.1882 8.028 98.9602 6.312 98.1922 5.112C97.4482 3.912 96.1522 3.312 94.3042 3.312C92.8402 3.312 91.6882 3.708 90.8482 4.5C90.0082 5.268 89.5882 6.396 89.5882 7.884C89.5882 9.06 89.9242 10.068 90.5962 10.908C91.2682 11.724 92.4562 12.372 94.1602 12.852L96.6442 13.572C100.652 14.676 102.656 17.016 102.656 20.592C102.656 21.864 102.356 23.016 101.756 24.048C101.18 25.056 100.292 25.86 99.0922 26.46C97.9162 27.06 96.4282 27.36 94.6282 27.36C93.3802 27.36 92.1802 27.168 91.0282 26.784C89.9002 26.4 88.9282 25.74 88.1122 24.804C87.3202 23.868 86.7922 22.572 86.5282 20.916L88.6882 20.196C88.8082 21.78 89.1562 23.004 89.7322 23.868C90.3082 24.732 91.0282 25.344 91.8922 25.704C92.7562 26.04 93.6682 26.208 94.6282 26.208ZM125.763 26.064V27H117.267V26.064L119.247 25.848C119.631 25.8 119.859 25.704 119.931 25.56C120.003 25.416 120.039 24.924 120.039 24.084V15.12C120.039 13.344 119.751 12.096 119.175 11.376C118.599 10.632 117.783 10.26 116.727 10.26C115.911 10.26 115.023 10.5 114.063 10.98C113.103 11.46 112.203 12.408 111.363 13.824V24.084C111.363 24.924 111.399 25.416 111.471 25.56C111.543 25.704 111.771 25.8 112.155 25.848L114.135 26.064V27H105.639V26.064L107.619 25.848C108.003 25.8 108.231 25.704 108.303 25.56C108.375 25.416 108.411 24.924 108.411 24.084V3.276C108.411 2.436 108.375 1.944 108.303 1.8C108.231 1.656 108.003 1.56 107.619 1.512L105.639 1.332V0.36H111.363V11.916C112.203 10.836 113.163 10.056 114.243 9.576C115.323 9.072 116.391 8.82 117.447 8.82C119.223 8.82 120.591 9.372 121.551 10.476C122.511 11.556 122.991 13.092 122.991 15.084V24.084C122.991 24.924 123.027 25.416 123.099 25.56C123.171 25.704 123.399 25.8 123.783 25.848L125.763 26.064ZM144.424 17.712V18.432C144.424 21.144 143.74 23.316 142.372 24.948C141.028 26.556 139.108 27.36 136.612 27.36C134.14 27.36 132.22 26.556 130.852 24.948C129.508 23.316 128.836 21.144 128.836 18.432V17.712C128.836 15.024 129.508 12.876 130.852 11.268C132.196 9.636 134.116 8.82 136.612 8.82C139.108 8.82 141.028 9.636 142.372 11.268C143.74 12.876 144.424 15.024 144.424 17.712ZM141.184 16.992C141.184 14.496 140.788 12.708 139.996 11.628C139.228 10.524 138.1 9.972 136.612 9.972C135.148 9.972 134.02 10.524 133.228 11.628C132.46 12.708 132.076 14.496 132.076 16.992V19.152C132.076 21.672 132.46 23.484 133.228 24.588C134.02 25.668 135.148 26.208 136.612 26.208C138.1 26.208 139.228 25.668 139.996 24.588C140.788 23.484 141.184 21.672 141.184 19.152V16.992ZM147.651 10.116V9.18H153.195V12.06C153.915 10.932 154.719 10.116 155.607 9.612C156.519 9.084 157.527 8.82 158.631 8.82C160.695 8.82 162.291 9.6 163.419 11.16C164.571 12.72 165.147 14.904 165.147 17.712V18.432C165.147 21.168 164.487 23.34 163.167 24.948C161.847 26.556 160.011 27.36 157.659 27.36C155.979 27.36 154.551 26.844 153.375 25.812V31.752C153.375 32.568 153.411 33.048 153.483 33.192C153.555 33.36 153.783 33.468 154.167 33.516L156.867 33.696V34.668H147.651V33.696L149.631 33.516C150.015 33.468 150.243 33.36 150.315 33.192C150.387 33.048 150.423 32.568 150.423 31.752V12.096C150.423 11.256 150.387 10.764 150.315 10.62C150.243 10.476 150.015 10.38 149.631 10.332L147.651 10.116ZM158.163 10.116C157.419 10.116 156.639 10.356 155.823 10.836C155.031 11.316 154.215 12.288 153.375 13.752V24.048C154.407 25.464 155.775 26.172 157.479 26.172C159.039 26.172 160.167 25.584 160.863 24.408C161.559 23.208 161.907 21.576 161.907 19.512V16.632C161.907 14.376 161.583 12.732 160.935 11.7C160.287 10.644 159.363 10.116 158.163 10.116Z" fill="white"/>
<path d="M2.51461 24.3L2.11967 24.6067L2.12193 24.6095L2.51461 24.3ZM1.14661 7.488L0.684647 7.29661L0.682373 7.3023L1.14661 7.488ZM4.20661 3.564L4.49236 3.9743L4.20661 3.564ZM13.6026 3.24L13.3415 3.66647L13.3479 3.67029L13.6026 3.24ZM16.1586 6.012L15.7041 6.22033L15.7058 6.22397L16.1586 6.012ZM16.6626 9.72L16.7812 10.2057L17.1098 10.1255L17.1576 9.79071L16.6626 9.72ZM13.5666 10.476L13.0699 10.4191L12.9882 11.1319L13.6852 10.9617L13.5666 10.476ZM12.7746 5.184L12.3524 5.45192L12.3548 5.45563L12.7746 5.184ZM4.96261 5.256L4.5608 4.95836L4.55727 4.96325L4.96261 5.256ZM5.07061 24.264L4.67593 24.571L5.07061 24.264ZM11.8386 25.812L12.0107 26.2814L12.0176 26.2789L12.0243 26.2762L11.8386 25.812ZM13.6746 24.372L13.2746 24.072L13.6746 24.372ZM14.6106 21.564L14.7355 21.0799L14.1711 20.9342L14.1131 21.5142L14.6106 21.564ZM16.8426 22.14L17.3247 22.2726L17.4594 21.7828L16.9676 21.6559L16.8426 22.14ZM14.0346 26.208L14.2861 26.6402L14.2885 26.6388L14.0346 26.208ZM9.49861 26.86C6.57397 26.86 4.40345 25.8886 2.90729 23.9905L2.12193 24.6095C3.84177 26.7914 6.32725 27.86 9.49861 27.86V26.86ZM2.90953 23.9934C1.41305 22.0661 0.638611 19.4494 0.638611 16.092H-0.361389C-0.361389 19.5986 0.448166 22.4539 2.11968 24.6066L2.90953 23.9934ZM0.638611 16.092V13.392H-0.361389V16.092H0.638611ZM0.638611 13.392C0.638611 11.1845 0.96751 9.28203 1.61085 7.67369L0.682373 7.3023C-0.0182915 9.05396 -0.361389 11.0875 -0.361389 13.392H0.638611ZM1.60854 7.67937C2.27212 6.07761 3.2353 4.84975 4.49236 3.9743L3.92086 3.1537C2.48992 4.15025 1.4131 5.53839 0.684681 7.29663L1.60854 7.67937ZM4.49236 3.9743C5.73779 3.10695 7.27724 2.66 9.13861 2.66V1.66C7.11198 1.66 5.36343 2.14905 3.92086 3.1537L4.49236 3.9743ZM9.13861 2.66C10.874 2.66 12.2647 3.00713 13.3415 3.66642L13.8637 2.81357C12.5885 2.03286 11.0032 1.66 9.13861 1.66V2.66ZM13.3479 3.67029C14.4435 4.31867 15.2219 5.1683 15.7041 6.22033L16.6131 5.80367C16.0393 4.5517 15.1137 3.55333 13.8573 2.80971L13.3479 3.67029ZM15.7058 6.22397C16.1888 7.25593 16.3472 8.39257 16.1676 9.64929L17.1576 9.79071C17.3621 8.35943 17.1844 7.02407 16.6115 5.80003L15.7058 6.22397ZM16.544 9.23427L13.448 9.99027L13.6852 10.9617L16.7812 10.2057L16.544 9.23427ZM14.0634 10.5329C14.3332 8.17763 14.0771 6.27659 13.1944 4.91237L12.3548 5.45563C13.0561 6.53941 13.328 8.16636 13.0699 10.4191L14.0634 10.5329ZM13.1968 4.91609C12.3022 3.50653 10.9206 2.812 9.13861 2.812V3.812C10.6206 3.812 11.663 4.36547 12.3524 5.45191L13.1968 4.91609ZM9.13861 2.812C7.17999 2.812 5.62845 3.51709 4.56083 4.95839L5.36439 5.55361C6.21677 4.4029 7.44923 3.812 9.13861 3.812V2.812ZM4.55727 4.96325C3.52663 6.39029 3.05861 8.63483 3.05861 11.592H4.05861C4.05861 8.69316 4.52658 6.71371 5.36795 5.54874L4.55727 4.96325ZM3.05861 11.592V17.892H4.05861V11.592H3.05861ZM3.05861 17.892C3.05861 20.8768 3.56353 23.1407 4.67593 24.571L5.46529 23.957C4.5617 22.7953 4.05861 20.8112 4.05861 17.892H3.05861ZM4.67593 24.571C5.79908 26.015 7.46093 26.708 9.57061 26.708V25.708C7.69629 25.708 6.35814 25.105 5.46529 23.957L4.67593 24.571ZM9.57061 26.708C10.4194 26.708 11.2338 26.5663 12.0107 26.2814L11.6665 25.3426C11.0034 25.5857 10.3058 25.708 9.57061 25.708V26.708ZM12.0243 26.2762C12.8365 25.9514 13.5203 25.411 14.0746 24.672L13.2746 24.072C12.8209 24.677 12.2807 25.0966 11.6529 25.3478L12.0243 26.2762ZM14.0746 24.672C14.6522 23.9019 14.9828 22.8671 15.1081 21.6138L14.1131 21.5142C13.9984 22.6609 13.7051 23.4981 13.2746 24.072L14.0746 24.672ZM14.4857 22.0481L16.7177 22.6241L16.9676 21.6559L14.7355 21.0799L14.4857 22.0481ZM16.3605 22.0074C15.857 23.8383 14.9842 25.0681 13.7808 25.7772L14.2885 26.6388C15.773 25.7639 16.7722 24.2817 17.3247 22.2726L16.3605 22.0074ZM13.7832 25.7758C12.5481 26.4944 11.1247 26.86 9.49861 26.86V27.86C11.2805 27.86 12.8811 27.4576 14.2861 26.6402L13.7832 25.7758ZM19.4357 1.332H18.9357V1.7886L19.3905 1.82994L19.4357 1.332ZM19.4357 0.36V-0.14H18.9357V0.36H19.4357ZM25.1597 0.36H25.6597V-0.14H25.1597V0.36ZM25.2677 25.56L25.715 25.3364V25.3364L25.2677 25.56ZM25.9517 25.848L25.8897 26.3442L25.8975 26.3451L25.9517 25.848ZM27.9317 26.064H28.4317V25.6156L27.986 25.5669L27.9317 26.064ZM27.9317 27V27.5H28.4317V27H27.9317ZM19.4357 27H18.9357V27.5H19.4357V27ZM19.4357 26.064L19.3815 25.5669L18.9357 25.6156V26.064H19.4357ZM21.4157 25.848L21.47 26.3451L21.4778 26.3441L21.4157 25.848ZM22.0997 1.8L22.547 1.57639V1.57639L22.0997 1.8ZM21.4157 1.512L21.4778 1.01586L21.4694 1.01482L21.461 1.01405L21.4157 1.512ZM19.9357 1.332V0.36H18.9357V1.332H19.9357ZM19.4357 0.86H25.1597V-0.14H19.4357V0.86ZM24.6597 0.36V24.084H25.6597V0.36H24.6597ZM24.6597 24.084C24.6597 24.509 24.6688 24.8558 24.6881 25.1195C24.6977 25.251 24.7104 25.3694 24.7275 25.4705C24.7428 25.5601 24.768 25.6785 24.8205 25.7836L25.715 25.3364C25.7315 25.3695 25.7252 25.3724 25.7134 25.303C25.7036 25.2451 25.6938 25.161 25.6854 25.0465C25.6687 24.8182 25.6597 24.499 25.6597 24.084H24.6597ZM24.8205 25.7836C24.9321 26.0067 25.1312 26.1303 25.2987 26.2008C25.4716 26.2736 25.6748 26.3173 25.8897 26.3441L26.0137 25.3519C25.8447 25.3307 25.7418 25.3024 25.6868 25.2792C25.6263 25.2537 25.6754 25.2573 25.715 25.3364L24.8205 25.7836ZM25.8975 26.3451L27.8775 26.5611L27.986 25.5669L26.006 25.3509L25.8975 26.3451ZM27.4317 26.064V27H28.4317V26.064H27.4317ZM27.9317 26.5H19.4357V27.5H27.9317V26.5ZM19.9357 27V26.064H18.9357V27H19.9357ZM19.49 26.5611L21.47 26.3451L21.3615 25.3509L19.3815 25.5669L19.49 26.5611ZM21.4778 26.3441C21.6927 26.3173 21.8958 26.2736 22.0688 26.2008C22.2363 26.1303 22.4354 26.0067 22.547 25.7836L21.6525 25.3364C21.6921 25.2573 21.7412 25.2537 21.6807 25.2792C21.6256 25.3024 21.5228 25.3307 21.3537 25.3519L21.4778 26.3441ZM22.547 25.7836C22.5995 25.6785 22.6247 25.5601 22.6399 25.4705C22.6571 25.3694 22.6698 25.251 22.6794 25.1195C22.6987 24.8558 22.7077 24.509 22.7077 24.084H21.7077C21.7077 24.499 21.6988 24.8182 21.6821 25.0465C21.6737 25.161 21.6639 25.2451 21.654 25.303C21.6423 25.3724 21.636 25.3695 21.6525 25.3364L22.547 25.7836ZM22.7077 24.084V3.276H21.7077V24.084H22.7077ZM22.7077 3.276C22.7077 2.85099 22.6987 2.50415 22.6794 2.24051C22.6698 2.10902 22.6571 1.99055 22.6399 1.88954C22.6247 1.79991 22.5995 1.68145 22.547 1.57639L21.6525 2.0236C21.636 1.99055 21.6423 1.98759 21.654 2.05696C21.6639 2.11494 21.6737 2.19898 21.6821 2.31349C21.6988 2.54185 21.7077 2.86101 21.7077 3.276H22.7077ZM22.547 1.57639C22.4354 1.35327 22.2363 1.2297 22.0688 1.15918C21.8958 1.08637 21.6927 1.04273 21.4778 1.01586L21.3537 2.00814C21.5228 2.02927 21.6256 2.05763 21.6807 2.08082C21.7412 2.10629 21.6921 2.10272 21.6525 2.02361L22.547 1.57639ZM21.461 1.01405L19.481 0.834051L19.3905 1.82994L21.3705 2.00995L21.461 1.01405ZM44.7426 24.948L44.3594 24.6268L44.359 24.6273L44.7426 24.948ZM33.2226 24.948L32.8366 25.2659L32.8418 25.272L33.2226 24.948ZM33.2226 11.268L33.6063 11.5887L33.6086 11.5859L33.2226 11.268ZM44.7426 11.268L44.3566 11.5859L44.3618 11.592L44.7426 11.268ZM42.3666 11.628L41.956 11.9136L41.9634 11.9237L42.3666 11.628ZM35.5986 11.628L35.1923 11.3365L35.1911 11.3382L35.5986 11.628ZM35.5986 24.588L35.188 24.8736L35.1954 24.8837L35.5986 24.588ZM42.3666 24.588L41.9603 24.2965L41.9591 24.2982L42.3666 24.588ZM46.2946 17.712V18.432H47.2946V17.712H46.2946ZM46.2946 18.432C46.2946 21.0594 45.6332 23.1072 44.3594 24.6268L45.1258 25.2692C46.588 23.5248 47.2946 21.2286 47.2946 18.432H46.2946ZM44.359 24.6273C43.1283 26.0997 41.3617 26.86 38.9826 26.86V27.86C41.5955 27.86 43.6689 27.0123 45.1263 25.2687L44.359 24.6273ZM38.9826 26.86C36.6295 26.86 34.8598 26.1008 33.6034 24.624L32.8418 25.272C34.3214 27.0112 36.3918 27.86 38.9826 27.86V26.86ZM33.6086 24.6301C32.357 23.1104 31.7066 21.0614 31.7066 18.432H30.7066C30.7066 21.2266 31.4002 23.5216 32.8366 25.2659L33.6086 24.6301ZM31.7066 18.432V17.712H30.7066V18.432H31.7066ZM31.7066 17.712C31.7066 15.1074 32.3566 13.0838 33.6062 11.5887L32.839 10.9473C31.4006 12.6682 30.7066 14.9406 30.7066 17.712H31.7066ZM33.6086 11.5859C34.84 10.0905 36.606 9.32 38.9826 9.32V8.32C36.3672 8.32 34.2932 9.18151 32.8366 10.9501L33.6086 11.5859ZM38.9826 9.32C41.3592 9.32 43.1252 10.0905 44.3566 11.5859L45.1286 10.9501C43.6721 9.18151 41.598 8.32 38.9826 8.32V9.32ZM44.3618 11.592C45.6337 13.0871 46.2946 15.1095 46.2946 17.712H47.2946C47.2946 14.9385 46.5875 12.6649 45.1234 10.944L44.3618 11.592ZM44.0546 16.992C44.0546 14.4689 43.6593 12.5453 42.7698 11.3323L41.9634 11.9237C42.6579 12.8707 43.0546 14.5231 43.0546 16.992H44.0546ZM42.7771 11.3425C41.9045 10.0882 40.6139 9.472 38.9826 9.472V10.472C40.3273 10.472 41.2927 10.9598 41.9562 11.9135L42.7771 11.3425ZM38.9826 9.472C37.3721 9.472 36.0865 10.0902 35.1923 11.3365L36.0049 11.9195C36.6948 10.9578 37.6651 10.472 38.9826 10.472V9.472ZM35.1911 11.3382C34.3295 12.5499 33.9466 14.4707 33.9466 16.992H34.9466C34.9466 14.5213 35.3317 12.8661 36.0061 11.9178L35.1911 11.3382ZM33.9466 16.992V19.152H34.9466V16.992H33.9466ZM33.9466 19.152C33.9466 21.6977 34.3297 23.6395 35.1882 24.8735L36.0091 24.3025C35.3315 23.3285 34.9466 21.6463 34.9466 19.152H33.9466ZM35.1954 24.8837C36.0913 26.1054 37.3766 26.708 38.9826 26.708V25.708C37.6607 25.708 36.6899 25.2306 36.0018 24.2923L35.1954 24.8837ZM38.9826 26.708C40.6094 26.708 41.8997 26.1074 42.7741 24.8778L41.9591 24.2982C41.2975 25.2286 40.3318 25.708 38.9826 25.708V26.708ZM42.7729 24.8795C43.6591 23.6441 44.0546 21.6994 44.0546 19.152H43.0546C43.0546 21.6446 42.6581 23.3239 41.9603 24.2965L42.7729 24.8795ZM44.0546 19.152V16.992H43.0546V19.152H44.0546ZM62.1537 23.328L62.6377 23.4532L62.7617 22.9739L62.2837 22.8452L62.1537 23.328ZM60.4617 26.388L60.7841 26.7701L60.4617 26.388ZM54.7017 26.604L54.4059 27.0073L54.4149 27.0136L54.7017 26.604ZM53.1177 24.552L53.5819 24.3663L53.1177 24.552ZM52.5057 10.62L52.0313 10.7781L52.0426 10.8118L52.0585 10.8436L52.5057 10.62ZM51.8217 10.332L51.8801 9.83525L51.8669 9.83405L51.8217 10.332ZM49.8417 10.152H49.3417V10.6086L49.7964 10.6499L49.8417 10.152ZM49.8417 9.18V8.68H49.3417V9.18H49.8417ZM52.6137 9.18V9.68H53.1137V9.18H52.6137ZM52.6137 4.464L52.5122 3.97441L52.1137 4.05702V4.464H52.6137ZM55.5657 3.852H56.0657V3.23771L55.4642 3.36241L55.5657 3.852ZM55.5657 9.18H55.0657V9.68H55.5657V9.18ZM61.4337 9.18H61.9337V8.68H61.4337V9.18ZM61.4337 10.332V10.832H61.9337V10.332H61.4337ZM55.5657 10.332V9.832H55.0657V10.332H55.5657ZM56.1777 25.344L55.7695 25.6331L55.7777 25.644L56.1777 25.344ZM59.4537 25.416L59.0493 25.1219L59.0448 25.1281L59.0406 25.1343L59.4537 25.416ZM60.2817 22.824L60.4117 22.3412L59.865 22.194L59.7865 22.7547L60.2817 22.824ZM61.6696 23.2028C61.3248 24.536 60.8006 25.4479 60.1392 26.0059L60.7841 26.7701C61.6588 26.0321 62.2626 24.9039 62.6377 23.4532L61.6696 23.2028ZM60.1392 26.0059C59.4782 26.5636 58.6156 26.86 57.5097 26.86V27.86C58.8037 27.86 59.9091 27.5084 60.7841 26.7701L60.1392 26.0059ZM57.5097 26.86C56.4287 26.86 55.6017 26.6237 54.9884 26.1944L54.4149 27.0136C55.2416 27.5923 56.2867 27.86 57.5097 27.86V26.86ZM54.9974 26.2008C54.3538 25.7289 53.8837 25.1207 53.5819 24.3663L52.6534 24.7377C53.0237 25.6633 53.6095 26.4231 54.406 27.0072L54.9974 26.2008ZM53.5819 24.3663C53.2697 23.5859 53.1137 22.7729 53.1137 21.924H52.1137C52.1137 22.8991 52.2936 23.8381 52.6534 24.7377L53.5819 24.3663ZM53.1137 21.924V12.096H52.1137V21.924H53.1137ZM53.1137 12.096C53.1137 11.671 53.1046 11.3242 53.0853 11.0605C53.0757 10.929 53.063 10.8106 53.0459 10.7095C53.0306 10.6199 53.0054 10.5015 52.9529 10.3964L52.0585 10.8436C52.0419 10.8105 52.0482 10.8076 52.06 10.877C52.0698 10.9349 52.0796 11.019 52.088 11.1335C52.1047 11.3618 52.1137 11.681 52.1137 12.096H53.1137ZM52.98 10.4619C52.8885 10.1874 52.6579 10.0488 52.4927 9.97918C52.3163 9.90491 52.1043 9.8618 51.8801 9.83542L51.7633 10.8286C51.947 10.8502 52.053 10.8791 52.1046 10.9008C52.1289 10.911 52.1246 10.9129 52.1078 10.8983C52.0887 10.8817 52.0529 10.8428 52.0313 10.7781L52.98 10.4619ZM51.8669 9.83405L49.8869 9.65405L49.7964 10.6499L51.7764 10.8299L51.8669 9.83405ZM50.3417 10.152V9.18H49.3417V10.152H50.3417ZM49.8417 9.68H52.6137V8.68H49.8417V9.68ZM53.1137 9.18V4.464H52.1137V9.18H53.1137ZM52.7152 4.95359L55.6672 4.34159L55.4642 3.36241L52.5122 3.97441L52.7152 4.95359ZM55.0657 3.852V9.18H56.0657V3.852H55.0657ZM55.5657 9.68H61.4337V8.68H55.5657V9.68ZM60.9337 9.18V10.332H61.9337V9.18H60.9337ZM61.4337 9.832H55.5657V10.832H61.4337V9.832ZM55.0657 10.332V22.212H56.0657V10.332H55.0657ZM55.0657 22.212C55.0657 23.7326 55.2638 24.9188 55.7697 25.633L56.5857 25.055C56.2756 24.6172 56.0657 23.7154 56.0657 22.212H55.0657ZM55.7777 25.644C56.3003 26.3408 57.01 26.708 57.8697 26.708V25.708C57.3373 25.708 56.9191 25.4992 56.5777 25.044L55.7777 25.644ZM57.8697 26.708C58.7136 26.708 59.4043 26.376 59.8668 25.6977L59.0406 25.1343C58.7831 25.512 58.4177 25.708 57.8697 25.708V26.708ZM59.858 25.7101C60.316 25.0805 60.6057 24.1161 60.7768 22.8933L59.7865 22.7547C59.6217 23.9319 59.3594 24.6955 59.0493 25.1219L59.858 25.7101ZM60.1517 23.3068L62.0237 23.8108L62.2837 22.8452L60.4117 22.3412L60.1517 23.3068ZM84.0676 26.064H84.5676V25.6156L84.1218 25.5669L84.0676 26.064ZM84.0676 27V27.5H84.5676V27H84.0676ZM75.5715 27H75.0715V27.5H75.5715V27ZM75.5715 26.064L75.5173 25.5669L75.0715 25.6156V26.064H75.5715ZM77.5515 25.848L77.6058 26.3451L77.6136 26.3441L77.5515 25.848ZM78.2355 25.56L77.7883 25.3364V25.3364L78.2355 25.56ZM77.4796 11.376L77.0841 11.6821L77.0891 11.6883L77.4796 11.376ZM72.3676 10.98L72.5912 11.4272V11.4272L72.3676 10.98ZM69.6675 13.824L69.2375 13.5689L69.1675 13.6869V13.824H69.6675ZM69.7756 25.56L70.2228 25.3364V25.3364L69.7756 25.56ZM70.4595 25.848L70.3975 26.3442L70.4053 26.3451L70.4595 25.848ZM72.4395 26.064H72.9395V25.6156L72.4938 25.5669L72.4395 26.064ZM72.4395 27V27.5H72.9395V27H72.4395ZM63.9436 27H63.4436V27.5H63.9436V27ZM63.9436 26.064L63.8893 25.5669L63.4436 25.6156V26.064H63.9436ZM65.9235 25.848L65.9778 26.3451L65.9856 26.3441L65.9235 25.848ZM66.6075 1.8L67.0548 1.57639V1.57639L66.6075 1.8ZM65.9235 1.512L65.9856 1.01586L65.9772 1.01482L65.9688 1.01405L65.9235 1.512ZM63.9436 1.332H63.4436V1.7886L63.8983 1.82994L63.9436 1.332ZM63.9436 0.36V-0.14H63.4436V0.36H63.9436ZM69.6675 0.36H70.1675V-0.14H69.6675V0.36ZM69.6675 11.916H69.1675V13.3733L70.0622 12.223L69.6675 11.916ZM72.5475 9.576L72.7507 10.033L72.759 10.0291L72.5475 9.576ZM79.8555 10.476L79.4782 10.8041L79.4818 10.8082L79.8555 10.476ZM81.4035 25.56L80.9563 25.7836V25.7836L81.4035 25.56ZM82.0875 25.848L82.0255 26.3442L82.0333 26.3451L82.0875 25.848ZM83.5676 26.064V27H84.5676V26.064H83.5676ZM84.0676 26.5H75.5715V27.5H84.0676V26.5ZM76.0715 27V26.064H75.0715V27H76.0715ZM75.6258 26.5611L77.6058 26.3451L77.4973 25.3509L75.5173 25.5669L75.6258 26.5611ZM77.6136 26.3441C77.8285 26.3173 78.0316 26.2736 78.2046 26.2008C78.3721 26.1303 78.5712 26.0067 78.6828 25.7836L77.7883 25.3364C77.8279 25.2573 77.877 25.2537 77.8165 25.2792C77.7614 25.3024 77.6586 25.3307 77.4895 25.3519L77.6136 26.3441ZM78.6828 25.7836C78.7353 25.6786 78.7605 25.5601 78.7757 25.4705C78.7929 25.3694 78.8056 25.251 78.8152 25.1195C78.8345 24.8558 78.8436 24.509 78.8436 24.084H77.8436C77.8436 24.499 77.8346 24.8182 77.8179 25.0465C77.8095 25.161 77.7997 25.2451 77.7899 25.303C77.7781 25.3724 77.7718 25.3694 77.7883 25.3364L78.6828 25.7836ZM78.8436 24.084V15.12H77.8436V24.084H78.8436ZM78.8436 15.12C78.8436 13.3207 78.5579 11.9236 77.87 11.0637L77.0891 11.6883C77.5532 12.2684 77.8436 13.3673 77.8436 15.12H78.8436ZM77.8749 11.0699C77.1917 10.1875 76.2207 9.76 75.0316 9.76V10.76C75.9545 10.76 76.6154 11.0765 77.0842 11.6821L77.8749 11.0699ZM75.0316 9.76C74.1174 9.76 73.1523 10.0286 72.1439 10.5328L72.5912 11.4272C73.5028 10.9714 74.3137 10.76 75.0316 10.76V9.76ZM72.1439 10.5328C71.0638 11.0729 70.1022 12.1112 69.2375 13.5689L70.0976 14.0791C70.9128 12.7048 71.7513 11.8471 72.5912 11.4272L72.1439 10.5328ZM69.1675 13.824V24.084H70.1675V13.824H69.1675ZM69.1675 24.084C69.1675 24.509 69.1766 24.8558 69.1959 25.1195C69.2055 25.251 69.2182 25.3694 69.2354 25.4705C69.2506 25.5601 69.2758 25.6785 69.3283 25.7836L70.2228 25.3364C70.2393 25.3695 70.233 25.3724 70.2212 25.303C70.2114 25.2451 70.2016 25.161 70.1932 25.0465C70.1765 24.8182 70.1675 24.499 70.1675 24.084H69.1675ZM69.3283 25.7836C69.4399 26.0067 69.639 26.1303 69.8065 26.2008C69.9794 26.2736 70.1826 26.3173 70.3975 26.3441L70.5216 25.3519C70.3525 25.3307 70.2496 25.3024 70.1946 25.2792C70.1341 25.2537 70.1832 25.2573 70.2228 25.3364L69.3283 25.7836ZM70.4053 26.3451L72.3853 26.5611L72.4938 25.5669L70.5138 25.3509L70.4053 26.3451ZM71.9395 26.064V27H72.9395V26.064H71.9395ZM72.4395 26.5H63.9436V27.5H72.4395V26.5ZM64.4436 27V26.064H63.4436V27H64.4436ZM63.9978 26.5611L65.9778 26.3451L65.8693 25.3509L63.8893 25.5669L63.9978 26.5611ZM65.9856 26.3441C66.2005 26.3173 66.4036 26.2736 66.5766 26.2008C66.7441 26.1303 66.9432 26.0067 67.0548 25.7836L66.1603 25.3364C66.1999 25.2573 66.249 25.2537 66.1885 25.2792C66.1334 25.3024 66.0306 25.3307 65.8615 25.3519L65.9856 26.3441ZM67.0548 25.7836C67.1073 25.6785 67.1325 25.5601 67.1477 25.4705C67.1649 25.3694 67.1776 25.251 67.1872 25.1195C67.2065 24.8558 67.2155 24.509 67.2155 24.084H66.2155C66.2155 24.499 66.2066 24.8182 66.1899 25.0465C66.1815 25.161 66.1717 25.2451 66.1618 25.303C66.1501 25.3724 66.1438 25.3695 66.1603 25.3364L67.0548 25.7836ZM67.2155 24.084V3.276H66.2155V24.084H67.2155ZM67.2155 3.276C67.2155 2.85099 67.2065 2.50415 67.1872 2.24051C67.1776 2.10902 67.1649 1.99055 67.1477 1.88954C67.1325 1.79991 67.1073 1.68145 67.0548 1.57639L66.1603 2.0236C66.1438 1.99055 66.1501 1.98759 66.1618 2.05696C66.1717 2.11494 66.1815 2.19898 66.1899 2.31349C66.2066 2.54185 66.2155 2.86101 66.2155 3.276H67.2155ZM67.0548 1.57639C66.9432 1.35327 66.7441 1.2297 66.5766 1.15918C66.4036 1.08637 66.2005 1.04273 65.9856 1.01586L65.8615 2.00814C66.0306 2.02927 66.1334 2.05763 66.1885 2.08082C66.249 2.10629 66.1999 2.10272 66.1603 2.02361L67.0548 1.57639ZM65.9688 1.01405L63.9888 0.834051L63.8983 1.82994L65.8783 2.00995L65.9688 1.01405ZM64.4436 1.332V0.36H63.4436V1.332H64.4436ZM63.9436 0.86H69.6675V-0.14H63.9436V0.86ZM69.1675 0.36V11.916H70.1675V0.36H69.1675ZM70.0622 12.223C70.8597 11.1977 71.7569 10.4745 72.7506 10.0329L72.3445 9.11909C71.1781 9.63746 70.1554 10.4743 69.2729 11.609L70.0622 12.223ZM72.759 10.0291C73.7813 9.552 74.7775 9.32 75.7515 9.32V8.32C74.6136 8.32 73.4738 8.592 72.3361 9.12291L72.759 10.0291ZM75.7515 9.32C77.4166 9.32 78.6333 9.83244 79.4782 10.8041L80.2328 10.1479C79.1578 8.91156 77.6385 8.32 75.7515 8.32V9.32ZM79.4818 10.8082C80.3341 11.767 80.7955 13.168 80.7955 15.084H81.7955C81.7955 13.016 81.297 11.345 80.2292 10.1438L79.4818 10.8082ZM80.7955 15.084V24.084H81.7955V15.084H80.7955ZM80.7955 24.084C80.7955 24.509 80.8046 24.8558 80.8239 25.1195C80.8335 25.251 80.8462 25.3694 80.8634 25.4705C80.8786 25.5601 80.9038 25.6785 80.9563 25.7836L81.8508 25.3364C81.8673 25.3695 81.861 25.3724 81.8492 25.303C81.8394 25.2451 81.8296 25.161 81.8212 25.0465C81.8045 24.8182 81.7955 24.499 81.7955 24.084H80.7955ZM80.9563 25.7836C81.0679 26.0067 81.267 26.1303 81.4345 26.2008C81.6075 26.2736 81.8106 26.3173 82.0255 26.3441L82.1496 25.3519C81.9805 25.3307 81.8776 25.3024 81.8226 25.2792C81.7621 25.2537 81.8112 25.2573 81.8508 25.3364L80.9563 25.7836ZM82.0333 26.3451L84.0133 26.5611L84.1218 25.5669L82.1418 25.3509L82.0333 26.3451ZM98.5162 25.02L98.2073 24.6268L98.2027 24.6305L98.5162 25.02ZM98.9122 18.468L98.5379 18.7996L98.5427 18.8049L98.9122 18.468ZM95.0242 16.452L94.885 16.9323L94.8926 16.9344L95.0242 16.452ZM92.5402 15.732L92.6794 15.2517L92.6734 15.2501L92.5402 15.732ZM88.3642 13.176L87.9738 13.4883L88.3642 13.176ZM87.7162 5.544L87.2776 5.3038L87.2733 5.312L87.7162 5.544ZM90.2002 3.096L89.9582 2.65846L89.9542 2.66072L90.2002 3.096ZM99.1282 3.24L98.8671 3.66647L98.8736 3.67029L99.1282 3.24ZM101.576 5.976L102.04 5.7886L101.576 5.976ZM101.9 9.612L102.005 10.1009L102.331 10.031L102.392 9.70304L101.9 9.612ZM98.8762 10.26L98.381 10.1908L98.2821 10.8987L98.981 10.7489L98.8762 10.26ZM98.1922 5.112L97.7672 5.37549L97.7711 5.38153L98.1922 5.112ZM90.8482 4.5L91.1856 4.86906L91.1912 4.86379L90.8482 4.5ZM90.5962 10.908L90.2057 11.2204L90.2102 11.2259L90.5962 10.908ZM94.1602 12.852L94.2994 12.3718L94.2958 12.3707L94.1602 12.852ZM96.6442 13.572L96.505 14.0523L96.5114 14.054L96.6442 13.572ZM101.756 24.048L101.324 23.7967L101.322 23.7999L101.756 24.048ZM99.0922 26.46L98.8686 26.0128L98.865 26.0146L99.0922 26.46ZM91.0282 26.784L90.8671 27.2573L90.8701 27.2583L91.0282 26.784ZM88.1122 24.804L87.7305 25.127L87.7353 25.1326L88.1122 24.804ZM86.5282 20.916L86.3701 20.4417L85.9677 20.5758L86.0344 20.9947L86.5282 20.916ZM88.6882 20.196L89.1868 20.1582L89.1383 19.5189L88.5301 19.7217L88.6882 20.196ZM89.7322 23.868L89.3162 24.1454L89.7322 23.868ZM91.8922 25.704L91.6998 26.1657L91.711 26.17L91.8922 25.704ZM94.6282 26.708C96.3186 26.708 97.735 26.2906 98.8297 25.4095L98.2027 24.6305C97.3294 25.3334 96.1539 25.708 94.6282 25.708V26.708ZM98.8251 25.4132C99.9781 24.5072 100.528 23.1835 100.528 21.528H99.5282C99.5282 22.9445 99.0703 23.9488 98.2073 24.6268L98.8251 25.4132ZM100.528 21.528C100.528 20.194 100.119 19.0495 99.2817 18.1311L98.5427 18.8049C99.1934 19.5185 99.5282 20.414 99.5282 21.528H100.528ZM99.2865 18.1365C98.4468 17.1885 97.0387 16.4831 95.1558 15.9696L94.8926 16.9344C96.7057 17.4289 97.8896 18.0675 98.5379 18.7995L99.2865 18.1365ZM95.1634 15.9718L92.6794 15.2518L92.401 16.2122L94.885 16.9322L95.1634 15.9718ZM92.6734 15.2501C90.927 14.7675 89.6349 13.964 88.7546 12.8637L87.9738 13.4883C89.0135 14.788 90.5054 15.6885 92.407 16.2139L92.6734 15.2501ZM88.7546 12.8637C87.8744 11.7633 87.4242 10.4134 87.4242 8.784H86.4242C86.4242 10.6106 86.934 12.1887 87.9738 13.4883L88.7546 12.8637ZM87.4242 8.784C87.4242 7.71177 87.6691 6.7115 88.1591 5.776L87.2733 5.312C86.7073 6.3925 86.4242 7.55223 86.4242 8.784H87.4242ZM88.1548 5.78416C88.6575 4.86618 89.4147 4.11434 90.4462 3.53128L89.9542 2.66072C88.7777 3.32566 87.879 4.20582 87.2776 5.30384L88.1548 5.78416ZM90.4422 3.53352C91.4752 2.9621 92.8132 2.66 94.4842 2.66V1.66C92.6992 1.66 91.1812 1.9819 89.9582 2.65848L90.4422 3.53352ZM94.4842 2.66C96.3467 2.66 97.7948 3.00987 98.8671 3.66642L99.3893 2.81357C98.1096 2.03013 96.4617 1.66 94.4842 1.66V2.66ZM98.8736 3.67029C99.9674 4.31766 100.703 5.1495 101.113 6.16339L102.04 5.7886C101.538 4.54649 100.641 3.55434 99.3829 2.80971L98.8736 3.67029ZM101.113 6.16339C101.53 7.19579 101.633 8.31043 101.409 9.52095L102.392 9.70304C102.648 8.32157 102.534 7.01221 102.04 5.7886L101.113 6.16339ZM101.795 9.1231L98.7714 9.7711L98.981 10.7489L102.005 10.1009L101.795 9.1231ZM99.3714 10.3292C99.6908 8.0441 99.4739 6.18705 98.6133 4.84247L97.7711 5.38153C98.4465 6.43695 98.6856 8.0119 98.381 10.1908L99.3714 10.3292ZM98.6172 4.84853C97.7541 3.45653 96.2648 2.812 94.3042 2.812V3.812C96.0396 3.812 97.1423 4.36746 97.7673 5.37547L98.6172 4.84853ZM94.3042 2.812C92.7483 2.812 91.461 3.23501 90.5052 4.13621L91.1912 4.86379C91.9154 4.18098 92.9321 3.812 94.3042 3.812V2.812ZM90.5108 4.13099C89.5378 5.0206 89.0882 6.30115 89.0882 7.884H90.0882C90.0882 6.49084 90.4786 5.5154 91.1856 4.86901L90.5108 4.13099ZM89.0882 7.884C89.0882 9.16225 89.4561 10.2833 90.2058 11.2203L90.9866 10.5957C90.3923 9.85273 90.0882 8.95774 90.0882 7.884H89.0882ZM90.2102 11.2259C90.9777 12.1577 92.2821 12.8424 94.0246 13.3333L94.2958 12.3707C92.6303 11.9016 91.5587 11.2903 90.9822 10.5901L90.2102 11.2259ZM94.021 13.3322L96.505 14.0522L96.7834 13.0918L94.2994 12.3718L94.021 13.3322ZM96.5114 14.054C98.4521 14.5886 99.8554 15.4082 100.773 16.4802C101.686 17.5453 102.156 18.903 102.156 20.592H103.156C103.156 18.705 102.625 17.1047 101.533 15.8298C100.447 14.5618 98.8443 13.6594 96.777 13.09L96.5114 14.054ZM102.156 20.592C102.156 21.7817 101.877 22.846 101.324 23.7967L102.188 24.2993C102.836 23.186 103.156 21.9463 103.156 20.592H102.156ZM101.322 23.7999C100.802 24.7095 99.9944 25.4499 98.8686 26.0128L99.3158 26.9072C100.59 26.2701 101.558 25.4025 102.19 24.2961L101.322 23.7999ZM98.865 26.0146C97.7802 26.5681 96.3765 26.86 94.6282 26.86V27.86C96.4799 27.86 98.0522 27.5519 99.3194 26.9054L98.865 26.0146ZM94.6282 26.86C93.4324 26.86 92.2859 26.6762 91.1863 26.3097L90.8701 27.2583C92.0745 27.6598 93.328 27.86 94.6282 27.86V26.86ZM91.1893 26.3107C90.1483 25.9563 89.2497 25.3479 88.4891 24.4754L87.7353 25.1326C88.6067 26.1321 89.6521 26.8437 90.8671 27.2573L91.1893 26.3107ZM88.4939 24.481C87.7787 23.6358 87.2767 22.435 87.022 20.8373L86.0344 20.9947C86.3077 22.709 86.8617 24.1002 87.7305 25.127L88.4939 24.481ZM86.6863 21.3903L88.8463 20.6703L88.5301 19.7217L86.3701 20.4417L86.6863 21.3903ZM88.1896 20.2338C88.313 21.8618 88.6738 23.1818 89.3162 24.1454L90.1482 23.5907C89.6386 22.8262 89.3034 21.6982 89.1868 20.1582L88.1896 20.2338ZM89.3162 24.1454C89.9407 25.0821 90.7349 25.7635 91.6999 26.1655L92.0845 25.2425C91.3215 24.9245 90.6757 24.3819 90.1482 23.5907L89.3162 24.1454ZM91.711 26.17C92.6348 26.5293 93.6085 26.708 94.6282 26.708V25.708C93.728 25.708 92.8776 25.5507 92.0734 25.238L91.711 26.17ZM125.763 26.064H126.263V25.6156L125.817 25.5669L125.763 26.064ZM125.763 27V27.5H126.263V27H125.763ZM117.267 27H116.767V27.5H117.267V27ZM117.267 26.064L117.213 25.5669L116.767 25.6156V26.064H117.267ZM119.247 25.848L119.301 26.3451L119.309 26.3441L119.247 25.848ZM119.931 25.56L119.484 25.3364V25.3364L119.931 25.56ZM119.175 11.376L118.779 11.6821L118.784 11.6883L119.175 11.376ZM114.063 10.98L114.286 11.4272V11.4272L114.063 10.98ZM111.363 13.824L110.933 13.5689L110.863 13.6869V13.824H111.363ZM111.471 25.56L111.918 25.3364V25.3364L111.471 25.56ZM112.155 25.848L112.093 26.3442L112.101 26.3451L112.155 25.848ZM114.135 26.064H114.635V25.6156L114.189 25.5669L114.135 26.064ZM114.135 27V27.5H114.635V27H114.135ZM105.639 27H105.139V27.5H105.639V27ZM105.639 26.064L105.585 25.5669L105.139 25.6156V26.064H105.639ZM107.619 25.848L107.673 26.3451L107.681 26.3441L107.619 25.848ZM108.303 1.8L108.75 1.57639V1.57639L108.303 1.8ZM107.619 1.512L107.681 1.01586L107.673 1.01482L107.664 1.01405L107.619 1.512ZM105.639 1.332H105.139V1.7886L105.594 1.82994L105.639 1.332ZM105.639 0.36V-0.14H105.139V0.36H105.639ZM111.363 0.36H111.863V-0.14H111.363V0.36ZM111.363 11.916H110.863V13.3733L111.758 12.223L111.363 11.916ZM114.243 9.576L114.446 10.033L114.454 10.0291L114.243 9.576ZM121.551 10.476L121.174 10.8041L121.177 10.8082L121.551 10.476ZM123.099 25.56L122.652 25.7836V25.7836L123.099 25.56ZM123.783 25.848L123.721 26.3442L123.729 26.3451L123.783 25.848ZM125.263 26.064V27H126.263V26.064H125.263ZM125.763 26.5H117.267V27.5H125.763V26.5ZM117.767 27V26.064H116.767V27H117.767ZM117.321 26.5611L119.301 26.3451L119.193 25.3509L117.213 25.5669L117.321 26.5611ZM119.309 26.3441C119.524 26.3173 119.727 26.2736 119.9 26.2008C120.067 26.1303 120.267 26.0067 120.378 25.7836L119.484 25.3364C119.523 25.2573 119.572 25.2537 119.512 25.2792C119.457 25.3024 119.354 25.3307 119.185 25.3519L119.309 26.3441ZM120.378 25.7836C120.431 25.6786 120.456 25.5601 120.471 25.4705C120.488 25.3694 120.501 25.251 120.511 25.1195C120.53 24.8558 120.539 24.509 120.539 24.084H119.539C119.539 24.499 119.53 24.8182 119.513 25.0465C119.505 25.161 119.495 25.2451 119.485 25.303C119.473 25.3724 119.467 25.3694 119.484 25.3364L120.378 25.7836ZM120.539 24.084V15.12H119.539V24.084H120.539ZM120.539 15.12C120.539 13.3207 120.253 11.9236 119.565 11.0637L118.784 11.6883C119.248 12.2684 119.539 13.3673 119.539 15.12H120.539ZM119.57 11.0699C118.887 10.1875 117.916 9.76 116.727 9.76V10.76C117.65 10.76 118.311 11.0765 118.779 11.6821L119.57 11.0699ZM116.727 9.76C115.813 9.76 114.848 10.0286 113.839 10.5328L114.286 11.4272C115.198 10.9714 116.009 10.76 116.727 10.76V9.76ZM113.839 10.5328C112.759 11.0729 111.798 12.1112 110.933 13.5689L111.793 14.0791C112.608 12.7048 113.447 11.8471 114.286 11.4272L113.839 10.5328ZM110.863 13.824V24.084H111.863V13.824H110.863ZM110.863 24.084C110.863 24.509 110.872 24.8558 110.891 25.1195C110.901 25.251 110.914 25.3694 110.931 25.4705C110.946 25.5601 110.971 25.6785 111.024 25.7836L111.918 25.3364C111.935 25.3695 111.928 25.3724 111.917 25.303C111.907 25.2451 111.897 25.161 111.889 25.0465C111.872 24.8182 111.863 24.499 111.863 24.084H110.863ZM111.024 25.7836C111.135 26.0067 111.334 26.1303 111.502 26.2008C111.675 26.2736 111.878 26.3173 112.093 26.3441L112.217 25.3519C112.048 25.3307 111.945 25.3024 111.89 25.2792C111.829 25.2537 111.879 25.2573 111.918 25.3364L111.024 25.7836ZM112.101 26.3451L114.081 26.5611L114.189 25.5669L112.209 25.3509L112.101 26.3451ZM113.635 26.064V27H114.635V26.064H113.635ZM114.135 26.5H105.639V27.5H114.135V26.5ZM106.139 27V26.064H105.139V27H106.139ZM105.693 26.5611L107.673 26.3451L107.565 25.3509L105.585 25.5669L105.693 26.5611ZM107.681 26.3441C107.896 26.3173 108.099 26.2736 108.272 26.2008C108.439 26.1303 108.639 26.0067 108.75 25.7836L107.856 25.3364C107.895 25.2573 107.944 25.2537 107.884 25.2792C107.829 25.3024 107.726 25.3307 107.557 25.3519L107.681 26.3441ZM108.75 25.7836C108.803 25.6785 108.828 25.5601 108.843 25.4705C108.86 25.3694 108.873 25.251 108.883 25.1195C108.902 24.8558 108.911 24.509 108.911 24.084H107.911C107.911 24.499 107.902 24.8182 107.885 25.0465C107.877 25.161 107.867 25.2451 107.857 25.303C107.845 25.3724 107.839 25.3695 107.856 25.3364L108.75 25.7836ZM108.911 24.084V3.276H107.911V24.084H108.911ZM108.911 3.276C108.911 2.85099 108.902 2.50415 108.883 2.24051C108.873 2.10902 108.86 1.99055 108.843 1.88954C108.828 1.79991 108.803 1.68145 108.75 1.57639L107.856 2.0236C107.839 1.99055 107.845 1.98759 107.857 2.05696C107.867 2.11494 107.877 2.19898 107.885 2.31349C107.902 2.54185 107.911 2.86101 107.911 3.276H108.911ZM108.75 1.57639C108.639 1.35327 108.439 1.2297 108.272 1.15918C108.099 1.08637 107.896 1.04273 107.681 1.01586L107.557 2.00814C107.726 2.02927 107.829 2.05763 107.884 2.08082C107.944 2.10629 107.895 2.10272 107.856 2.02361L108.75 1.57639ZM107.664 1.01405L105.684 0.834051L105.594 1.82994L107.574 2.00995L107.664 1.01405ZM106.139 1.332V0.36H105.139V1.332H106.139ZM105.639 0.86H111.363V-0.14H105.639V0.86ZM110.863 0.36V11.916H111.863V0.36H110.863ZM111.758 12.223C112.555 11.1977 113.452 10.4745 114.446 10.0329L114.04 9.11909C112.873 9.63746 111.851 10.4743 110.968 11.609L111.758 12.223ZM114.454 10.0291C115.477 9.552 116.473 9.32 117.447 9.32V8.32C116.309 8.32 115.169 8.592 114.031 9.12291L114.454 10.0291ZM117.447 9.32C119.112 9.32 120.329 9.83244 121.174 10.8041L121.928 10.1479C120.853 8.91156 119.334 8.32 117.447 8.32V9.32ZM121.177 10.8082C122.029 11.767 122.491 13.168 122.491 15.084H123.491C123.491 13.016 122.992 11.345 121.925 10.1438L121.177 10.8082ZM122.491 15.084V24.084H123.491V15.084H122.491ZM122.491 24.084C122.491 24.509 122.5 24.8558 122.519 25.1195C122.529 25.251 122.542 25.3694 122.559 25.4705C122.574 25.5601 122.599 25.6785 122.652 25.7836L123.546 25.3364C123.563 25.3695 123.556 25.3724 123.545 25.303C123.535 25.2451 123.525 25.161 123.517 25.0465C123.5 24.8182 123.491 24.499 123.491 24.084H122.491ZM122.652 25.7836C122.763 26.0067 122.962 26.1303 123.13 26.2008C123.303 26.2736 123.506 26.3173 123.721 26.3441L123.845 25.3519C123.676 25.3307 123.573 25.3024 123.518 25.2792C123.457 25.2537 123.507 25.2573 123.546 25.3364L122.652 25.7836ZM123.729 26.3451L125.709 26.5611L125.817 25.5669L123.837 25.3509L123.729 26.3451ZM142.372 24.948L141.988 24.6268L141.988 24.6273L142.372 24.948ZM130.852 24.948L130.465 25.2659L130.471 25.272L130.852 24.948ZM130.852 11.268L131.235 11.5887L131.237 11.5859L130.852 11.268ZM142.372 11.268L141.986 11.5859L141.991 11.592L142.372 11.268ZM139.996 11.628L139.585 11.9136L139.592 11.9237L139.996 11.628ZM133.228 11.628L132.821 11.3365L132.82 11.3382L133.228 11.628ZM133.228 24.588L132.817 24.8736L132.824 24.8837L133.228 24.588ZM139.996 24.588L139.589 24.2965L139.588 24.2982L139.996 24.588ZM143.924 17.712V18.432H144.924V17.712H143.924ZM143.924 18.432C143.924 21.0594 143.262 23.1072 141.988 24.6268L142.755 25.2692C144.217 23.5248 144.924 21.2286 144.924 18.432H143.924ZM141.988 24.6273C140.757 26.0997 138.991 26.86 136.612 26.86V27.86C139.224 27.86 141.298 27.0123 142.755 25.2687L141.988 24.6273ZM136.612 26.86C134.258 26.86 132.489 26.1008 131.232 24.624L130.471 25.272C131.95 27.0112 134.021 27.86 136.612 27.86V26.86ZM131.237 24.6301C129.986 23.1104 129.336 21.0614 129.336 18.432H128.336C128.336 21.2266 129.029 23.5216 130.466 25.2659L131.237 24.6301ZM129.336 18.432V17.712H128.336V18.432H129.336ZM129.336 17.712C129.336 15.1074 129.985 13.0838 131.235 11.5887L130.468 10.9473C129.03 12.6682 128.336 14.9406 128.336 17.712H129.336ZM131.237 11.5859C132.469 10.0905 134.235 9.32 136.612 9.32V8.32C133.996 8.32 131.922 9.18151 130.466 10.9501L131.237 11.5859ZM136.612 9.32C138.988 9.32 140.754 10.0905 141.986 11.5859L142.757 10.9501C141.301 9.18151 139.227 8.32 136.612 8.32V9.32ZM141.991 11.592C143.263 13.0871 143.924 15.1095 143.924 17.712H144.924C144.924 14.9385 144.216 12.6649 142.752 10.944L141.991 11.592ZM141.684 16.992C141.684 14.4689 141.288 12.5453 140.399 11.3323L139.592 11.9237C140.287 12.8707 140.684 14.5231 140.684 16.992H141.684ZM140.406 11.3425C139.533 10.0882 138.243 9.472 136.612 9.472V10.472C137.956 10.472 138.922 10.9598 139.585 11.9135L140.406 11.3425ZM136.612 9.472C135.001 9.472 133.715 10.0902 132.821 11.3365L133.634 11.9195C134.324 10.9578 135.294 10.472 136.612 10.472V9.472ZM132.82 11.3382C131.958 12.5499 131.576 14.4707 131.576 16.992H132.576C132.576 14.5213 132.961 12.8661 133.635 11.9178L132.82 11.3382ZM131.576 16.992V19.152H132.576V16.992H131.576ZM131.576 19.152C131.576 21.6977 131.959 23.6395 132.817 24.8735L133.638 24.3025C132.96 23.3285 132.576 21.6463 132.576 19.152H131.576ZM132.824 24.8837C133.72 26.1054 135.005 26.708 136.612 26.708V25.708C135.29 25.708 134.319 25.2306 133.631 24.2923L132.824 24.8837ZM136.612 26.708C138.238 26.708 139.529 26.1074 140.403 24.8778L139.588 24.2982C138.926 25.2286 137.961 25.708 136.612 25.708V26.708ZM140.402 24.8795C141.288 23.6441 141.684 21.6994 141.684 19.152H140.684C140.684 21.6446 140.287 23.3239 139.589 24.2965L140.402 24.8795ZM141.684 19.152V16.992H140.684V19.152H141.684ZM147.651 10.116H147.151V10.5644L147.596 10.6131L147.651 10.116ZM147.651 9.18V8.68H147.151V9.18H147.651ZM153.195 9.18H153.695V8.68H153.195V9.18ZM153.195 12.06H152.695V13.7726L153.616 12.329L153.195 12.06ZM155.607 9.612L155.853 10.0469L155.857 10.0447L155.607 9.612ZM163.419 11.16L163.013 11.453L163.016 11.457L163.419 11.16ZM163.167 24.948L163.553 25.2652L163.167 24.948ZM153.375 25.812L153.704 25.4362L152.875 24.708V25.812H153.375ZM153.483 33.192L153.942 32.995L153.936 32.9815L153.93 32.9684L153.483 33.192ZM154.167 33.516L154.105 34.0121L154.119 34.0139L154.133 34.0149L154.167 33.516ZM156.867 33.696H157.367V33.2282L156.9 33.1971L156.867 33.696ZM156.867 34.668V35.168H157.367V34.668H156.867ZM147.651 34.668H147.151V35.168H147.651V34.668ZM147.651 33.696L147.605 33.1981L147.151 33.2394V33.696H147.651ZM149.631 33.516L149.676 34.0139L149.684 34.0132L149.693 34.0121L149.631 33.516ZM150.315 33.192L149.867 32.9684L149.861 32.9815L149.855 32.995L150.315 33.192ZM150.315 10.62L149.867 10.8436V10.8436L150.315 10.62ZM149.631 10.332L149.693 9.8358L149.685 9.83495L149.631 10.332ZM155.823 10.836L155.569 10.405L155.563 10.4084L155.823 10.836ZM153.375 13.752L152.941 13.5032L152.875 13.6187V13.752H153.375ZM153.375 24.048H152.875V24.2109L152.971 24.3425L153.375 24.048ZM160.863 24.408L161.293 24.6627L161.295 24.6589L160.863 24.408ZM160.935 11.7L160.508 11.9615L160.511 11.9659L160.935 11.7ZM148.151 10.116V9.18H147.151V10.116H148.151ZM147.651 9.68H153.195V8.68H147.651V9.68ZM152.695 9.18V12.06H153.695V9.18H152.695ZM153.616 12.329C154.305 11.2491 155.055 10.5001 155.853 10.0468L155.36 9.17716C154.382 9.73192 153.524 10.6149 152.773 11.791L153.616 12.329ZM155.857 10.0447C156.689 9.56293 157.61 9.32 158.631 9.32V8.32C157.443 8.32 156.348 8.60507 155.356 9.17929L155.857 10.0447ZM158.631 9.32C160.548 9.32 161.987 10.0336 163.013 11.453L163.824 10.867C162.594 9.1664 160.841 8.32 158.631 8.32V9.32ZM163.016 11.457C164.082 12.9002 164.647 14.9648 164.647 17.712H165.647C165.647 14.8432 165.059 12.5398 163.821 10.863L163.016 11.457ZM164.647 17.712V18.432H165.647V17.712H164.647ZM164.647 18.432C164.647 21.0891 164.006 23.137 162.78 24.6308L163.553 25.2652C164.967 23.543 165.647 21.2469 165.647 18.432H164.647ZM162.78 24.6308C161.568 26.1071 159.883 26.86 157.659 26.86V27.86C160.138 27.86 162.125 27.0049 163.553 25.2652L162.78 24.6308ZM157.659 26.86C156.09 26.86 154.782 26.382 153.704 25.4362L153.045 26.1878C154.319 27.306 155.867 27.86 157.659 27.86V26.86ZM152.875 25.812V31.752H153.875V25.812H152.875ZM152.875 31.752C152.875 32.1652 152.884 32.5034 152.903 32.7614C152.913 32.8901 152.925 33.0065 152.943 33.1063C152.958 33.1954 152.983 33.3118 153.035 33.4156L153.93 32.9684C153.946 33.0002 153.94 33.0026 153.928 32.9357C153.918 32.8795 153.909 32.7979 153.9 32.6866C153.884 32.4646 153.875 32.1548 153.875 31.752H152.875ZM153.023 33.389C153.123 33.6214 153.311 33.7646 153.494 33.8509C153.674 33.9363 153.885 33.9847 154.105 34.0121L154.229 33.0199C154.064 32.9993 153.969 32.9697 153.922 32.9471C153.876 32.9254 153.915 32.9306 153.942 32.995L153.023 33.389ZM154.133 34.0149L156.833 34.1949L156.9 33.1971L154.2 33.0171L154.133 34.0149ZM156.367 33.696V34.668H157.367V33.696H156.367ZM156.867 34.168H147.651V35.168H156.867V34.168ZM148.151 34.668V33.696H147.151V34.668H148.151ZM147.696 34.1939L149.676 34.0139L149.585 33.0181L147.605 33.1981L147.696 34.1939ZM149.693 34.0121C149.912 33.9847 150.123 33.9363 150.304 33.8509C150.486 33.7646 150.675 33.6214 150.774 33.389L149.855 32.995C149.883 32.9306 149.921 32.9254 149.876 32.9471C149.828 32.9697 149.733 32.9993 149.569 33.0199L149.693 34.0121ZM150.762 33.4156C150.814 33.3118 150.839 33.1954 150.855 33.1063C150.872 33.0065 150.885 32.8901 150.894 32.7614C150.914 32.5034 150.923 32.1652 150.923 31.752H149.923C149.923 32.1548 149.914 32.4646 149.897 32.6866C149.889 32.7979 149.879 32.8795 149.869 32.9357C149.858 33.0026 149.851 33.0002 149.867 32.9684L150.762 33.4156ZM150.923 31.752V12.096H149.923V31.752H150.923ZM150.923 12.096C150.923 11.671 150.914 11.3242 150.894 11.0605C150.885 10.929 150.872 10.8106 150.855 10.7095C150.84 10.6199 150.814 10.5015 150.762 10.3964L149.867 10.8436C149.851 10.8105 149.857 10.8076 149.869 10.877C149.879 10.9349 149.889 11.019 149.897 11.1335C149.914 11.3618 149.923 11.681 149.923 12.096H150.923ZM150.762 10.3964C150.65 10.1733 150.451 10.0497 150.284 9.97918C150.111 9.90637 149.908 9.86272 149.693 9.83586L149.569 10.8281C149.738 10.8493 149.84 10.8776 149.896 10.9008C149.956 10.9263 149.907 10.9227 149.867 10.8436L150.762 10.3964ZM149.685 9.83495L147.705 9.61895L147.596 10.6131L149.576 10.8291L149.685 9.83495ZM158.163 9.616C157.308 9.616 156.441 9.89195 155.569 10.405L156.076 11.267C156.836 10.82 157.529 10.616 158.163 10.616V9.616ZM155.563 10.4084C154.661 10.9551 153.794 12.0171 152.941 13.5032L153.808 14.0008C154.636 12.5589 155.4 11.6769 156.082 11.2636L155.563 10.4084ZM152.875 13.752V24.048H153.875V13.752H152.875ZM152.971 24.3425C154.093 25.8833 155.61 26.672 157.479 26.672V25.672C155.94 25.672 154.72 25.0447 153.779 23.7535L152.971 24.3425ZM157.479 26.672C159.185 26.672 160.493 26.0148 161.293 24.6627L160.432 24.1533C159.841 25.1532 158.892 25.672 157.479 25.672V26.672ZM161.295 24.6589C162.052 23.3543 162.407 21.6242 162.407 19.512H161.407C161.407 21.5278 161.065 23.0617 160.43 24.1571L161.295 24.6589ZM162.407 19.512V16.632H161.407V19.512H162.407ZM162.407 16.632C162.407 14.3502 162.083 12.5886 161.358 11.4341L160.511 11.9659C161.082 12.8754 161.407 14.4018 161.407 16.632H162.407ZM161.361 11.4385C160.625 10.2402 159.543 9.616 158.163 9.616V10.616C159.182 10.616 159.948 11.0478 160.508 11.9615L161.361 11.4385Z" fill="white"/>
</svg>
